<svg width="20" height="20" viewBox="0 0 20 20" fill="none" xmlns="http://www.w3.org/2000/svg">
<path fill-rule="evenodd" clip-rule="evenodd" d="M10 5.5C8.54131 5.5 7.14236 6.07946 6.11091 7.11091C5.07946 8.14236 4.5 9.54131 4.5 11C4.5 12.4587 5.07946 13.8576 6.11091 14.8891C7.14236 15.9205 8.54131 16.5 10 16.5C11.4587 16.5 12.8576 15.9205 13.8891 14.8891C14.9205 13.8576 15.5 12.4587 15.5 11C15.5 9.54131 14.9205 8.14236 13.8891 7.11091C12.8576 6.07946 11.4587 5.5 10 5.5ZM2.5 11C2.5 9.01088 3.29018 7.10322 4.6967 5.6967C6.10322 4.29018 8.01088 3.5 10 3.5C11.9891 3.5 13.8968 4.29018 15.3033 5.6967C16.7098 7.10322 17.5 9.01088 17.5 11C17.5 12.9891 16.7098 14.8968 15.3033 16.3033C13.8968 17.7098 11.9891 18.5 10 18.5C8.01088 18.5 6.10322 17.7098 4.6967 16.3033C3.29018 14.8968 2.5 12.9891 2.5 11Z" fill="white"/>
<path fill-rule="evenodd" clip-rule="evenodd" d="M2.79279 18.207C2.98031 18.3945 3.23462 18.4998 3.49979 18.4998C3.76495 18.4998 4.01926 18.3945 4.20679 18.207L5.70679 16.707C5.8023 16.6148 5.87848 16.5044 5.93089 16.3824C5.9833 16.2604 6.01088 16.1292 6.01204 15.9964C6.01319 15.8636 5.98789 15.7319 5.93761 15.609C5.88733 15.4861 5.81307 15.3745 5.71918 15.2806C5.62529 15.1867 5.51364 15.1125 5.39074 15.0622C5.26784 15.0119 5.13616 14.9866 5.00339 14.9877C4.87061 14.9889 4.73939 15.0165 4.61738 15.0689C4.49538 15.1213 4.38503 15.1975 4.29279 15.293L2.79279 16.793C2.60532 16.9805 2.5 17.2348 2.5 17.5C2.5 17.7652 2.60532 18.0195 2.79279 18.207ZM14.2928 15.293C14.4803 15.1055 14.7346 15.0002 14.9998 15.0002C15.265 15.0002 15.5193 15.1055 15.7068 15.293L17.2068 16.793C17.3889 16.9816 17.4897 17.2342 17.4875 17.4964C17.4852 17.7586 17.38 18.0094 17.1946 18.1948C17.0092 18.3802 16.7584 18.4854 16.4962 18.4877C16.234 18.49 15.9814 18.3892 15.7928 18.207L14.2928 16.707C14.1053 16.5195 14 16.2652 14 16C14 15.7348 14.1053 15.4805 14.2928 15.293ZM9.99979 7C10.265 7 10.5194 7.10536 10.7069 7.29289C10.8944 7.48043 10.9998 7.73478 10.9998 8V11C10.9998 11.2652 10.8944 11.5196 10.7069 11.7071C10.5194 11.8946 10.265 12 9.99979 12C9.73457 12 9.48022 11.8946 9.29268 11.7071C9.10514 11.5196 8.99979 11.2652 8.99979 11V8C8.99979 7.73478 9.10514 7.48043 9.29268 7.29289C9.48022 7.10536 9.73457 7 9.99979 7Z" fill="white"/>
<path fill-rule="evenodd" clip-rule="evenodd" d="M13.9999 10.9999C13.9999 11.2651 13.8945 11.5195 13.707 11.707C13.5194 11.8945 13.2651 11.9999 12.9999 11.9999H9.99988C9.73466 11.9999 9.48031 11.8945 9.29277 11.707C9.10523 11.5195 8.99988 11.2651 8.99988 10.9999C8.99988 10.7347 9.10523 10.4803 9.29277 10.2928C9.48031 10.1053 9.73466 9.99989 9.99988 9.99989H12.9999C13.2651 9.99989 13.5194 10.1053 13.707 10.2928C13.8945 10.4803 13.9999 10.7347 13.9999 10.9999ZM6.33188 3.17189L2.57388 6.75989C2.57388 6.75989 2.49688 6.68989 2.38388 6.56189C2.12688 6.26989 1.68688 5.68089 1.56288 4.96089C1.44988 4.30689 1.59788 3.54389 2.38088 2.79589C3.16388 2.04889 3.93188 1.93589 4.58088 2.07889C5.29388 2.23589 5.86188 2.70289 6.14188 2.97289C6.26488 3.09089 6.33188 3.17189 6.33188 3.17189ZM13.6679 3.17189L17.4259 6.75989C17.4259 6.75989 17.5029 6.68989 17.6159 6.56189C17.8729 6.26989 18.3129 5.68089 18.4369 4.96089C18.5499 4.30689 18.4019 3.54389 17.6189 2.79589C16.8359 2.04889 16.0679 1.93589 15.4189 2.07889C14.7059 2.23589 14.1379 2.70289 13.8579 2.97289C13.7349 3.09089 13.6679 3.17189 13.6679 3.17189Z" fill="white"/>
</svg>
