<svg width="13" height="17" viewBox="0 0 13 17" fill="none" xmlns="http://www.w3.org/2000/svg">
<path d="M0 1.25C0 0.56 0.56 0 1.25 0H6.25C7.11916 0.000668252 7.9715 0.239704 8.71426 0.691096C9.45701 1.14249 10.0617 1.78895 10.4627 2.56013C10.8636 3.33131 11.0453 4.19768 10.988 5.06495C10.9308 5.93223 10.6368 6.7672 10.138 7.479C11.1653 7.96426 11.9967 8.78491 12.4953 9.80581C12.9939 10.8267 13.1299 11.987 12.881 13.0955C12.632 14.204 12.013 15.1947 11.1258 15.9045C10.2386 16.6142 9.13614 17.0006 8 17H1.25C0.56 17 0 16.44 0 15.75V1.25ZM2.5 9.5V14.5H8C8.66304 14.5 9.29893 14.2366 9.76777 13.7678C10.2366 13.2989 10.5 12.663 10.5 12C10.5 11.337 10.2366 10.7011 9.76777 10.2322C9.29893 9.76339 8.66304 9.5 8 9.5H2.5ZM2.5 7H6.251C6.84774 6.99987 7.41998 6.76269 7.84184 6.34064C8.26371 5.91859 8.50063 5.34624 8.5005 4.7495C8.50037 4.15276 8.26319 3.58052 7.84114 3.15866C7.41909 2.73679 6.84674 2.49987 6.25 2.5H2.5V7Z" fill="black"/>
</svg>
